<mxfile host="app.diagrams.net" modified="2021-11-15T10:49:27.992Z" agent="5.0 (Windows NT 10.0; Win64; x64) AppleWebKit/537.36 (KHTML, like Gecko) Chrome/77.0.3865.90 Safari/537.36" etag="NZyxgVQ6lGDkAkQQaUry" version="15.7.3" type="github">
  <diagram id="Cuy8SSrBaXIe2WgJ0xsk" name="Page-1">
    <mxGraphModel dx="1278" dy="548" grid="1" gridSize="10" guides="1" tooltips="1" connect="1" arrows="1" fold="1" page="1" pageScale="1" pageWidth="1200" pageHeight="1600" math="0" shadow="0">
      <root>
        <mxCell id="0" />
        <mxCell id="1" parent="0" />
        <mxCell id="nMDgOZrZQoWDls4aoF4L-12" style="edgeStyle=none;rounded=0;orthogonalLoop=1;jettySize=auto;html=1;exitX=0.25;exitY=1;exitDx=0;exitDy=0;entryX=1;entryY=0.25;entryDx=0;entryDy=0;fontSize=9;dashed=1;" edge="1" parent="1" source="nMDgOZrZQoWDls4aoF4L-1" target="nMDgOZrZQoWDls4aoF4L-6">
          <mxGeometry relative="1" as="geometry" />
        </mxCell>
        <mxCell id="nMDgOZrZQoWDls4aoF4L-15" value="&lt;b&gt;Visits localhost:8080/&lt;/b&gt;&lt;br&gt;[HTTPS]" style="edgeLabel;html=1;align=center;verticalAlign=middle;resizable=0;points=[];" vertex="1" connectable="0" parent="nMDgOZrZQoWDls4aoF4L-12">
          <mxGeometry x="-0.2642" y="3" relative="1" as="geometry">
            <mxPoint as="offset" />
          </mxGeometry>
        </mxCell>
        <mxCell id="nMDgOZrZQoWDls4aoF4L-13" style="edgeStyle=none;rounded=0;orthogonalLoop=1;jettySize=auto;html=1;exitX=0.75;exitY=1;exitDx=0;exitDy=0;entryX=0;entryY=0.25;entryDx=0;entryDy=0;fontSize=9;dashed=1;" edge="1" parent="1" source="nMDgOZrZQoWDls4aoF4L-1" target="nMDgOZrZQoWDls4aoF4L-7">
          <mxGeometry relative="1" as="geometry" />
        </mxCell>
        <mxCell id="nMDgOZrZQoWDls4aoF4L-16" value="&lt;b&gt;Views project schedule and&lt;br&gt;&amp;nbsp;students&#39; submission&lt;/b&gt;" style="edgeLabel;html=1;align=center;verticalAlign=middle;resizable=0;points=[];" vertex="1" connectable="0" parent="nMDgOZrZQoWDls4aoF4L-13">
          <mxGeometry x="-0.3388" relative="1" as="geometry">
            <mxPoint as="offset" />
          </mxGeometry>
        </mxCell>
        <mxCell id="nMDgOZrZQoWDls4aoF4L-1" value="&lt;br&gt;&lt;br&gt;&lt;br&gt;&lt;br&gt;&lt;br&gt;&lt;br&gt;&lt;b&gt;&lt;font style=&quot;font-size: 14px&quot;&gt;Student-Grade-Accessment-System Customer&lt;/font&gt;&lt;/b&gt;&lt;br&gt;&lt;font style=&quot;font-size: 8px&quot;&gt;[Person]&lt;/font&gt;&lt;br&gt;The teacher or students in the class." style="shape=actor;whiteSpace=wrap;html=1;fillColor=#6a00ff;strokeColor=#3700CC;fontColor=#ffffff;" vertex="1" parent="1">
          <mxGeometry x="350" y="50" width="220" height="150" as="geometry" />
        </mxCell>
        <mxCell id="nMDgOZrZQoWDls4aoF4L-6" value="&lt;b&gt;&lt;font style=&quot;font-size: 14px&quot;&gt;Web Application&lt;/font&gt;&lt;/b&gt;&lt;br&gt;&lt;font&gt;&lt;font size=&quot;1&quot;&gt;[Container:Java and Spring MVC]&lt;br&gt;&lt;/font&gt;&lt;br&gt;&lt;font style=&quot;font-size: 12px&quot;&gt;Delivers the static content and the Internet Student-Grade-Accessment-System single page application.&lt;/font&gt;&lt;br&gt;&lt;/font&gt;" style="rounded=0;whiteSpace=wrap;html=1;fillColor=#1ba1e2;fontColor=#ffffff;strokeColor=#006EAF;" vertex="1" parent="1">
          <mxGeometry x="100" y="280" width="210" height="130" as="geometry" />
        </mxCell>
        <mxCell id="nMDgOZrZQoWDls4aoF4L-18" style="edgeStyle=orthogonalEdgeStyle;curved=0;rounded=1;sketch=0;orthogonalLoop=1;jettySize=auto;html=1;exitX=0.5;exitY=1;exitDx=0;exitDy=0;entryX=0.5;entryY=0;entryDx=0;entryDy=0;dashed=1;fontSize=9;" edge="1" parent="1" source="nMDgOZrZQoWDls4aoF4L-7" target="nMDgOZrZQoWDls4aoF4L-17">
          <mxGeometry relative="1" as="geometry" />
        </mxCell>
        <mxCell id="nMDgOZrZQoWDls4aoF4L-19" value="&lt;b&gt;Makes API calls to&lt;/b&gt;&lt;br&gt;[JSON/HTTPS]" style="edgeLabel;html=1;align=center;verticalAlign=middle;resizable=0;points=[];fontSize=9;" vertex="1" connectable="0" parent="nMDgOZrZQoWDls4aoF4L-18">
          <mxGeometry x="-0.2384" y="-2" relative="1" as="geometry">
            <mxPoint as="offset" />
          </mxGeometry>
        </mxCell>
        <mxCell id="nMDgOZrZQoWDls4aoF4L-7" value="&lt;b&gt;&lt;font style=&quot;font-size: 14px&quot;&gt;Single-Page Application&lt;/font&gt;&lt;/b&gt;&lt;br&gt;&lt;font style=&quot;font-size: 9px&quot;&gt;[Container: JavaScript]&lt;/font&gt;&lt;br&gt;&lt;br&gt;Provides all of the Internet Student-Grade-Accessment-System information to customers via their web browser." style="rounded=0;whiteSpace=wrap;html=1;fontSize=12;fillColor=#1ba1e2;fontColor=#ffffff;strokeColor=#006EAF;" vertex="1" parent="1">
          <mxGeometry x="610" y="280" width="210" height="130" as="geometry" />
        </mxCell>
        <mxCell id="nMDgOZrZQoWDls4aoF4L-14" value="&lt;b&gt;&lt;font style=&quot;font-size: 14px&quot;&gt;Database&lt;/font&gt;&lt;/b&gt;&lt;br&gt;&lt;font style=&quot;font-size: 9px&quot;&gt;[Container: Mysql Database Schema]&lt;/font&gt;&lt;br&gt;&lt;br&gt;&lt;font style=&quot;font-size: 12px&quot;&gt;Stores students&#39; commits number, added lines number, deleted lines number, every project information, etc.&lt;/font&gt;&amp;nbsp;" style="shape=datastore;whiteSpace=wrap;html=1;fontSize=9;fillColor=#1ba1e2;fontColor=#ffffff;strokeColor=#006EAF;" vertex="1" parent="1">
          <mxGeometry x="100" y="517.5" width="220" height="170" as="geometry" />
        </mxCell>
        <mxCell id="nMDgOZrZQoWDls4aoF4L-22" style="edgeStyle=orthogonalEdgeStyle;curved=0;rounded=1;sketch=0;orthogonalLoop=1;jettySize=auto;html=1;exitX=0;exitY=0.5;exitDx=0;exitDy=0;entryX=1;entryY=0.5;entryDx=0;entryDy=0;dashed=1;fontSize=9;" edge="1" parent="1" source="nMDgOZrZQoWDls4aoF4L-17" target="nMDgOZrZQoWDls4aoF4L-14">
          <mxGeometry relative="1" as="geometry" />
        </mxCell>
        <mxCell id="nMDgOZrZQoWDls4aoF4L-23" value="&lt;b&gt;Reads from&lt;/b&gt;&lt;br&gt;[JDBC]" style="edgeLabel;html=1;align=center;verticalAlign=middle;resizable=0;points=[];fontSize=9;" vertex="1" connectable="0" parent="nMDgOZrZQoWDls4aoF4L-22">
          <mxGeometry x="-0.171" y="-1" relative="1" as="geometry">
            <mxPoint as="offset" />
          </mxGeometry>
        </mxCell>
        <mxCell id="nMDgOZrZQoWDls4aoF4L-27" style="edgeStyle=orthogonalEdgeStyle;curved=0;rounded=1;sketch=0;orthogonalLoop=1;jettySize=auto;html=1;exitX=1;exitY=0.5;exitDx=0;exitDy=0;entryX=0;entryY=0.5;entryDx=0;entryDy=0;dashed=1;fontSize=12;" edge="1" parent="1" source="nMDgOZrZQoWDls4aoF4L-17" target="nMDgOZrZQoWDls4aoF4L-26">
          <mxGeometry relative="1" as="geometry" />
        </mxCell>
        <mxCell id="nMDgOZrZQoWDls4aoF4L-28" value="&lt;b&gt;Makes API calls to&lt;/b&gt;&lt;br&gt;[HTTPS]" style="edgeLabel;html=1;align=center;verticalAlign=middle;resizable=0;points=[];fontSize=12;" vertex="1" connectable="0" parent="nMDgOZrZQoWDls4aoF4L-27">
          <mxGeometry x="0.32" relative="1" as="geometry">
            <mxPoint x="-26" as="offset" />
          </mxGeometry>
        </mxCell>
        <mxCell id="nMDgOZrZQoWDls4aoF4L-17" value="&lt;font style=&quot;font-size: 14px&quot;&gt;&lt;b&gt;API Application&lt;/b&gt;&lt;/font&gt;&lt;br&gt;&lt;font style=&quot;font-size: 9px&quot;&gt;[Comtainer: Java and Spring MVC]&lt;br&gt;&lt;/font&gt;&lt;br&gt;Provides Internet Student-Grade-Accessment-System information via a JSON/HTTPS API." style="rounded=0;whiteSpace=wrap;html=1;sketch=0;fillColor=#1ba1e2;fontColor=#ffffff;strokeColor=#006EAF;" vertex="1" parent="1">
          <mxGeometry x="610" y="535" width="210" height="135" as="geometry" />
        </mxCell>
        <mxCell id="nMDgOZrZQoWDls4aoF4L-24" value="" style="swimlane;startSize=0;rounded=0;sketch=0;fontSize=9;dashed=1;" vertex="1" parent="1">
          <mxGeometry x="60" y="260" width="800" height="480" as="geometry" />
        </mxCell>
        <mxCell id="nMDgOZrZQoWDls4aoF4L-25" value="&lt;b&gt;Internet Student-Grade-Accessment-System&lt;/b&gt;&lt;br&gt;[Software System]" style="text;html=1;align=center;verticalAlign=middle;resizable=0;points=[];autosize=1;strokeColor=none;fillColor=none;fontSize=9;" vertex="1" parent="nMDgOZrZQoWDls4aoF4L-24">
          <mxGeometry x="20" y="450" width="220" height="30" as="geometry" />
        </mxCell>
        <mxCell id="nMDgOZrZQoWDls4aoF4L-26" value="&lt;font style=&quot;font-size: 14px&quot;&gt;&lt;b&gt;Mainframe Student-Grade-Accessment-System&lt;/b&gt;&lt;/font&gt;&lt;br&gt;[Software System]&lt;br&gt;&lt;br&gt;&lt;font style=&quot;font-size: 12px&quot;&gt;Stores all of the core Student-Grade-Accessment-System information.&lt;/font&gt;" style="rounded=0;whiteSpace=wrap;html=1;sketch=0;fontSize=9;fillColor=#bac8d3;strokeColor=#23445d;" vertex="1" parent="1">
          <mxGeometry x="950" y="535" width="210" height="135" as="geometry" />
        </mxCell>
      </root>
    </mxGraphModel>
  </diagram>
</mxfile>
